<?xml version="1.0" encoding="UTF-8"?>
<svg xmlns="http://www.w3.org/2000/svg" xmlns:xlink="http://www.w3.org/1999/xlink" width="600" height="450" viewBox="0 0 600 450">
<path fill="none" stroke-width="3" stroke-linecap="butt" stroke-linejoin="miter" stroke="rgb(25.098041%, 38.82353%, 84.705883%)" stroke-opacity="1" stroke-miterlimit="2" d="M 347.347656 415 L 351.265625 409.480469 L 354.875 403.839844 L 358.1875 398.101562 L 361.199219 392.285156 L 363.921875 386.414062 L 366.355469 380.5 L 368.507812 374.558594 L 370.390625 368.613281 L 372.007812 362.671875 L 373.371094 356.746094 L 374.488281 350.847656 L 375.367188 344.992188 L 376.019531 339.179688 L 376.453125 333.425781 L 376.675781 327.734375 L 376.699219 322.109375 L 376.53125 316.5625 L 376.179688 311.097656 L 375.652344 305.714844 L 374.957031 300.421875 L 374.101562 295.21875 L 373.097656 290.109375 L 371.945312 285.097656 L 370.65625 280.1875 L 369.234375 275.375 L 367.6875 270.667969 L 366.023438 266.0625 L 364.242188 261.558594 L 362.359375 257.164062 L 360.371094 252.875 L 358.285156 248.6875 L 356.105469 244.613281 L 353.839844 240.640625 L 351.492188 236.777344 L 349.066406 233.015625 L 346.566406 229.367188 L 343.992188 225.820312 L 341.355469 222.378906 L 338.652344 219.046875 L 335.890625 215.816406 L 333.074219 212.691406 L 330.203125 209.671875 L 327.28125 206.753906 L 324.3125 203.941406 L 321.300781 201.226562 L 318.25 198.617188 L 315.15625 196.109375 L 312.03125 193.703125 L 308.867188 191.394531 L 305.675781 189.183594 L 302.453125 187.074219 L 299.207031 185.0625 L 295.933594 183.144531 L 292.640625 181.328125 L 289.324219 179.605469 L 285.992188 177.976562 L 282.640625 176.445312 L 279.277344 175.007812 L 275.898438 173.660156 L 272.511719 172.40625 L 269.113281 171.246094 L 265.710938 170.179688 L 262.300781 169.199219 L 258.882812 168.3125 L 255.464844 167.515625 L 252.046875 166.804688 L 248.628906 166.183594 L 245.210938 165.652344 L 241.796875 165.207031 L 238.386719 164.847656 L 234.980469 164.574219 L 231.585938 164.386719 L 228.199219 164.285156 L 224.820312 164.265625 L 221.453125 164.332031 L 218.097656 164.480469 L 214.757812 164.714844 L 211.433594 165.03125 L 208.125 165.425781 L 204.832031 165.90625 L 201.5625 166.464844 L 198.308594 167.105469 L 195.078125 167.824219 L 191.871094 168.625 L 188.683594 169.503906 L 185.527344 170.460938 L 182.390625 171.496094 L 179.285156 172.609375 L 176.207031 173.796875 L 173.160156 175.066406 L 170.144531 176.410156 L 167.160156 177.828125 L 164.207031 179.324219 L 161.292969 180.894531 L 158.410156 182.539062 L 155.566406 184.257812 L 152.761719 186.050781 L 149.996094 187.914062 L 147.273438 189.855469 "/>
<path fill="none" stroke-width="3" stroke-linecap="butt" stroke-linejoin="miter" stroke="rgb(79.607844%, 23.529412%, 20%)" stroke-opacity="1" stroke-miterlimit="2" d="M 347.347656 415 L 346.554688 411.945312 L 345.738281 408.878906 L 344.894531 405.804688 L 344.023438 402.71875 L 343.121094 399.621094 L 342.191406 396.515625 L 341.230469 393.398438 L 340.234375 390.273438 L 339.203125 387.140625 L 338.136719 384.003906 L 337.03125 380.859375 L 335.886719 377.710938 L 334.699219 374.554688 L 333.472656 371.402344 L 332.199219 368.246094 L 330.882812 365.09375 L 329.515625 361.941406 L 328.105469 358.796875 L 326.644531 355.660156 L 325.136719 352.535156 L 323.574219 349.417969 L 321.964844 346.320312 L 320.304688 343.238281 L 318.59375 340.175781 L 316.835938 337.136719 L 315.027344 334.125 L 313.171875 331.136719 L 311.273438 328.183594 L 309.324219 325.257812 L 307.335938 322.371094 L 305.308594 319.515625 L 303.242188 316.699219 L 301.140625 313.921875 L 299.003906 311.183594 L 296.835938 308.484375 L 294.636719 305.828125 L 292.414062 303.207031 L 290.167969 300.632812 L 287.902344 298.09375 L 285.613281 295.597656 L 283.308594 293.136719 L 280.988281 290.71875 L 278.65625 288.335938 L 276.308594 285.992188 L 273.953125 283.679688 L 271.589844 281.40625 L 269.21875 279.167969 L 266.84375 276.957031 L 264.460938 274.78125 L 262.074219 272.636719 L 259.6875 270.523438 L 257.296875 268.433594 L 254.902344 266.375 L 252.511719 264.34375 L 250.117188 262.335938 L 247.726562 260.351562 L 245.335938 258.394531 L 242.945312 256.457031 L 240.558594 254.542969 L 238.171875 252.648438 L 235.789062 250.777344 L 233.410156 248.921875 L 231.03125 247.089844 L 228.660156 245.269531 L 226.289062 243.472656 L 223.921875 241.691406 L 221.558594 239.921875 L 219.195312 238.171875 L 216.839844 236.4375 L 214.488281 234.714844 L 212.140625 233.007812 L 209.792969 231.3125 L 207.453125 229.632812 L 205.117188 227.964844 L 202.785156 226.308594 L 200.457031 224.664062 L 198.132812 223.03125 L 195.8125 221.410156 L 193.496094 219.796875 L 191.183594 218.195312 L 188.875 216.605469 L 186.570312 215.023438 L 184.269531 213.449219 L 181.972656 211.886719 L 179.679688 210.332031 L 177.390625 208.785156 L 175.105469 207.246094 L 172.824219 205.714844 L 170.546875 204.195312 L 168.273438 202.679688 L 166 201.171875 L 163.734375 199.671875 L 161.472656 198.175781 L 159.210938 196.691406 L 156.957031 195.210938 L 154.703125 193.734375 L 152.453125 192.269531 L 150.207031 190.804688 L 147.964844 189.351562 "/>
<path fill="none" stroke-width="3" stroke-linecap="butt" stroke-linejoin="miter" stroke="rgb(21.960784%, 59.607846%, 14.901961%)" stroke-opacity="1" stroke-miterlimit="2" d="M 347.347656 415 L 355.917969 407.234375 L 363.671875 399.175781 L 370.664062 390.921875 L 376.941406 382.546875 L 382.558594 374.105469 L 387.5625 365.648438 L 392 357.210938 L 395.910156 348.828125 L 399.332031 340.515625 L 402.300781 332.296875 L 404.851562 324.1875 L 407.007812 316.195312 L 408.800781 308.332031 L 410.253906 300.601562 L 411.386719 293.019531 L 412.222656 285.578125 L 412.777344 278.285156 L 413.074219 271.148438 L 413.117188 264.160156 L 412.929688 257.328125 L 412.523438 250.652344 L 411.910156 244.132812 L 411.097656 237.769531 L 410.101562 231.558594 L 408.929688 225.507812 L 407.589844 219.609375 L 406.089844 213.867188 L 404.441406 208.277344 L 402.648438 202.839844 L 400.71875 197.558594 L 398.65625 192.429688 L 396.472656 187.449219 L 394.171875 182.621094 L 391.757812 177.941406 L 389.234375 173.410156 L 386.609375 169.027344 L 383.886719 164.792969 L 381.066406 160.707031 L 378.160156 156.765625 L 375.167969 152.972656 L 372.09375 149.320312 L 368.945312 145.816406 L 365.71875 142.453125 L 362.417969 139.234375 L 359.054688 136.160156 L 355.625 133.230469 L 352.132812 130.4375 L 348.578125 127.792969 L 344.972656 125.285156 L 341.3125 122.921875 L 337.601562 120.699219 L 333.84375 118.617188 L 330.039062 116.675781 L 326.191406 114.875 L 322.300781 113.21875 L 318.375 111.699219 L 314.414062 110.324219 L 310.417969 109.089844 L 306.390625 107.996094 L 302.332031 107.042969 L 298.25 106.234375 L 294.144531 105.566406 L 290.011719 105.042969 L 285.863281 104.660156 L 281.695312 104.425781 L 277.511719 104.332031 L 273.3125 104.382812 L 269.105469 104.578125 L 264.886719 104.921875 L 260.660156 105.410156 L 256.433594 106.046875 L 252.203125 106.832031 L 247.96875 107.769531 L 243.742188 108.855469 L 239.519531 110.09375 L 235.300781 111.480469 L 231.097656 113.027344 L 226.902344 114.726562 L 222.726562 116.582031 L 218.570312 118.59375 L 214.433594 120.765625 L 210.320312 123.097656 L 206.234375 125.59375 L 202.179688 128.257812 L 198.160156 131.082031 L 194.179688 134.078125 L 190.242188 137.242188 L 186.347656 140.578125 L 182.507812 144.089844 L 178.71875 147.777344 L 174.988281 151.644531 L 171.324219 155.691406 L 167.730469 159.925781 L 164.210938 164.34375 L 160.773438 168.953125 L 157.421875 173.757812 L 154.164062 178.753906 L 151.011719 183.953125 L 147.964844 189.351562 "/>
<path fill="none" stroke-width="3" stroke-linecap="butt" stroke-linejoin="miter" stroke="rgb(58.431375%, 34.509805%, 69.803923%)" stroke-opacity="1" stroke-miterlimit="2" d="M 347.347656 415 L 361.617188 404.484375 L 374.175781 393.429688 L 385.230469 382.085938 L 394.972656 370.625 L 403.5625 359.164062 L 411.136719 347.78125 L 417.8125 336.523438 L 423.683594 325.433594 L 428.832031 314.53125 L 433.332031 303.835938 L 437.238281 293.359375 L 440.609375 283.109375 L 443.488281 273.085938 L 445.917969 263.292969 L 447.925781 253.734375 L 449.550781 244.402344 L 450.8125 235.304688 L 451.742188 226.433594 L 452.355469 217.789062 L 452.679688 209.371094 L 452.726562 201.171875 L 452.515625 193.195312 L 452.058594 185.433594 L 451.371094 177.886719 L 450.464844 170.554688 L 449.351562 163.429688 L 448.039062 156.511719 L 446.542969 149.800781 L 444.867188 143.292969 L 443.019531 136.984375 L 441.007812 130.878906 L 438.84375 124.96875 L 436.53125 119.253906 L 434.074219 113.734375 L 431.484375 108.40625 L 428.761719 103.273438 L 425.914062 98.328125 L 422.945312 93.570312 L 419.859375 89.003906 L 416.664062 84.625 L 413.359375 80.433594 L 409.957031 76.425781 L 406.449219 72.601562 L 402.851562 68.964844 L 399.160156 65.511719 L 395.378906 62.246094 L 391.511719 59.160156 L 387.566406 56.257812 L 383.539062 53.539062 L 379.4375 51.007812 L 375.261719 48.65625 L 371.015625 46.492188 L 366.703125 44.507812 L 362.328125 42.714844 L 357.886719 41.101562 L 353.386719 39.679688 L 348.832031 38.441406 L 344.222656 37.390625 L 339.558594 36.53125 L 334.847656 35.859375 L 330.089844 35.378906 L 325.285156 35.09375 L 320.441406 35 L 315.554688 35.101562 L 310.632812 35.402344 L 305.675781 35.902344 L 300.6875 36.601562 L 295.671875 37.507812 L 290.625 38.617188 L 285.558594 39.933594 L 280.46875 41.464844 L 275.363281 43.207031 L 270.238281 45.164062 L 265.105469 47.34375 L 259.960938 49.746094 L 254.8125 52.378906 L 249.664062 55.238281 L 244.515625 58.335938 L 239.375 61.671875 L 234.246094 65.253906 L 229.128906 69.082031 L 224.03125 73.167969 L 218.960938 77.515625 L 213.921875 82.128906 L 208.917969 87.015625 L 203.957031 92.183594 L 199.046875 97.640625 L 194.195312 103.394531 L 189.410156 109.453125 L 184.699219 115.828125 L 180.078125 122.527344 L 175.554688 129.5625 L 171.140625 136.945312 L 166.855469 144.691406 L 162.710938 152.808594 L 158.726562 161.320312 L 154.921875 170.234375 L 151.328125 179.570312 L 147.964844 189.351562 "/>
<path fill-rule="nonzero" fill="rgb(0%, 0%, 0%)" fill-opacity="1" d="M 351.578125 415 C 351.578125 409.359375 343.117188 409.359375 343.117188 415 C 343.117188 420.640625 351.578125 420.640625 351.578125 415 Z M 351.578125 415 "/>
<path fill-rule="nonzero" fill="rgb(0%, 0%, 0%)" fill-opacity="1" d="M 152.195312 189.351562 C 152.195312 183.710938 143.734375 183.710938 143.734375 189.351562 C 143.734375 194.992188 152.195312 194.992188 152.195312 189.351562 Z M 152.195312 189.351562 "/>
<path fill-rule="nonzero" fill="rgb(41.176471%, 41.176471%, 41.176471%)" fill-opacity="1" stroke-width="3" stroke-linecap="butt" stroke-linejoin="miter" stroke="rgb(0%, 0%, 0%)" stroke-opacity="1" stroke-miterlimit="2" d="M 278.703125 370.742188 L 278.652344 369.082031 L 278.492188 367.425781 L 278.230469 365.785156 L 277.867188 364.164062 L 277.398438 362.570312 L 276.832031 361.011719 L 276.167969 359.488281 L 275.40625 358.011719 L 274.554688 356.585938 L 273.613281 355.21875 L 272.585938 353.910156 L 271.480469 352.671875 L 270.296875 351.507812 L 269.042969 350.421875 L 267.722656 349.414062 L 266.34375 348.492188 L 264.90625 347.664062 L 263.417969 346.925781 L 261.886719 346.285156 L 260.320312 345.742188 L 258.722656 345.296875 L 257.097656 344.957031 L 255.453125 344.722656 L 253.800781 344.589844 L 252.140625 344.5625 L 250.484375 344.640625 L 248.835938 344.824219 L 247.203125 345.113281 L 245.589844 345.507812 L 244.003906 346 L 242.453125 346.59375 L 240.945312 347.28125 L 239.484375 348.066406 L 238.074219 348.941406 L 236.722656 349.90625 L 235.433594 350.953125 L 234.214844 352.082031 L 233.070312 353.285156 L 232.003906 354.558594 L 231.019531 355.894531 L 230.121094 357.292969 L 229.316406 358.742188 L 228.601562 360.242188 L 227.984375 361.785156 L 227.46875 363.363281 L 227.050781 364.972656 L 226.738281 366.605469 L 226.527344 368.253906 L 226.421875 369.910156 L 226.421875 371.570312 L 226.527344 373.230469 L 226.738281 374.878906 L 227.050781 376.507812 L 227.46875 378.117188 L 227.984375 379.695312 L 228.601562 381.238281 L 229.316406 382.738281 L 230.121094 384.191406 L 231.019531 385.585938 L 232.003906 386.925781 L 233.070312 388.199219 L 234.214844 389.398438 L 235.433594 390.527344 L 236.722656 391.574219 L 238.074219 392.539062 L 239.484375 393.414062 L 240.945312 394.199219 L 242.453125 394.890625 L 244.003906 395.484375 L 245.589844 395.976562 L 247.203125 396.367188 L 248.835938 396.65625 L 250.484375 396.839844 L 252.140625 396.917969 L 253.800781 396.894531 L 255.453125 396.761719 L 257.097656 396.523438 L 258.722656 396.183594 L 260.320312 395.742188 L 261.886719 395.199219 L 263.417969 394.554688 L 264.90625 393.820312 L 266.34375 392.988281 L 267.722656 392.066406 L 269.042969 391.0625 L 270.296875 389.972656 L 271.480469 388.808594 L 272.585938 387.570312 L 273.613281 386.265625 L 274.554688 384.894531 L 275.40625 383.46875 L 276.167969 381.992188 L 276.832031 380.472656 L 277.398438 378.910156 L 277.867188 377.316406 L 278.230469 375.695312 L 278.492188 374.054688 L 278.652344 372.402344 Z M 278.703125 370.742188 "/>
</svg>
